# xmcd CD database file generated by LOLA_Freedb v0.9beta0
# 
# Track frame offsets:
#      150
#      22815
#      29662
#      37872
#      46335
# 
# Disc length: 713 seconds
# 
# Revision: 0 
# Processed by: cddbd v1.5.2PL0 Copyright (c) Steve Scherf et al.
# Submitted via: LOLA_Freedb v0.9beta0
# 
DISCID=3102c705
DTITLE=The Tractors - Fast Girl
DYEAR=1900
DGENRE=
TTITLE0=The Tractors - Can´t Get Nowhere
TTITLE1=The Tractors - Nine Eleven
TTITLE2=The Tractors - Fast Girl
TTITLE3=The Tractors - It´s A Beautiful Thing
TTITLE4=The Tractors - Babalou
EXTD=
EXTT0=
EXTT1=
EXTT2=
EXTT3=
EXTT4=
PLAYORDER=
